<svg width="300" height="300" viewBox="0 0 300 300" fill="none" xmlns="http://www.w3.org/2000/svg">
<circle cx="150" cy="150" r="51" fill="white" fill-opacity="0.28"/>
<path fill-rule="evenodd" clip-rule="evenodd" d="M279.025 166C271.14 230.249 216.38 280 150 280C83.6201 280 28.8603 230.249 20.9748 166H79.9133C87.3621 197.534 115.691 221 149.5 221C183.309 221 211.638 197.534 219.087 166H279.025ZM278.899 133H219.087C211.638 101.466 183.309 78 149.5 78C115.691 78 87.3621 101.466 79.9133 133H21.1015C29.4294 69.2359 83.9649 20 150 20C216.035 20 270.571 69.2359 278.899 133Z" fill="white" fill-opacity="0.28"/>
</svg>
