<svg width="272" height="276" viewBox="0 0 272 276" fill="none" xmlns="http://www.w3.org/2000/svg">
<path d="M187 138C187 166.167 164.167 189 136 189C107.833 189 85 166.167 85 138C85 109.833 107.833 87 136 87C164.167 87 187 109.833 187 138Z" fill="#D9D9D9"/>
<path d="M271.741 163C259.979 227.281 203.679 276 136 276C68.3213 276 12.0215 227.281 0.258778 163H51.6018C62.3743 199.424 96.0835 226 136 226C175.916 226 209.626 199.424 220.398 163H271.741Z" fill="#D9D9D9"/>
<path d="M271.92 114H220.687C210.241 77.0639 176.281 50 136 50C95.7191 50 61.7594 77.0639 51.3125 114H0.0796051C11.4387 49.2253 67.9707 0 136 0C204.029 0 260.561 49.2253 271.92 114Z" fill="#D9D9D9"/>
</svg>
